# xmcd
#
# Track frame offsets:
#	150
#	17112
#	34473
#	51324
#	67074
#
# Disc length: 1101 seconds
#
# Revision: 1
# Processed by: cddbd v1.5.2PL0 Copyright (c) Steve Scherf et al.
# Submitted via: audiograbber 1.83.01
#
DISCID=47044b05
DTITLE=Revel In Dimes - The Parlour EP
DYEAR=2016
DGENRE=Blues
TTITLE0=Shame
TTITLE1=Dead and Gone
TTITLE2=Desert Song
TTITLE3=Last Breath
TTITLE4=You Gotta Go
EXTD=
EXTT0=
EXTT1=
EXTT2=
EXTT3=
EXTT4=
PLAYORDER=
